<?xml version="1.0" encoding="UTF-8" standalone="no"?>
<!-- Generator: Adobe Illustrator 18.0.0, SVG Export Plug-In . SVG Version: 6.00 Build 0)  -->

<svg
   xmlns:dc="http://purl.org/dc/elements/1.1/"
   xmlns:cc="http://creativecommons.org/ns#"
   xmlns:rdf="http://www.w3.org/1999/02/22-rdf-syntax-ns#"
   xmlns:svg="http://www.w3.org/2000/svg"
   xmlns="http://www.w3.org/2000/svg"
   xmlns:sodipodi="http://sodipodi.sourceforge.net/DTD/sodipodi-0.dtd"
   xmlns:inkscape="http://www.inkscape.org/namespaces/inkscape"
   version="1.1"
   id="Capa_1"
   x="0px"
   y="0px"
   viewBox="0 0 236.23899 191.41299"
   xml:space="preserve"
   inkscape:version="0.91 r13725"
   sodipodi:docname="hm_logo.svg"
   width="236.239"
   height="191.41299"><metadata
     id="metadata3482"><rdf:RDF><cc:Work
         rdf:about=""><dc:format>image/svg+xml</dc:format><dc:type
           rdf:resource="http://purl.org/dc/dcmitype/StillImage" /><dc:title></dc:title></cc:Work></rdf:RDF></metadata><defs
     id="defs3480" /><sodipodi:namedview
     pagecolor="#ffffff"
     bordercolor="#666666"
     borderopacity="1"
     objecttolerance="10"
     gridtolerance="10"
     guidetolerance="10"
     inkscape:pageopacity="0"
     inkscape:pageshadow="2"
     inkscape:window-width="1204"
     inkscape:window-height="830"
     id="namedview3478"
     showgrid="false"
     fit-margin-top="0"
     fit-margin-left="0"
     fit-margin-right="0"
     fit-margin-bottom="0"
     inkscape:zoom="1.4173307"
     inkscape:cx="156.17877"
     inkscape:cy="47.127689"
     inkscape:window-x="0"
     inkscape:window-y="0"
     inkscape:window-maximized="0"
     inkscape:current-layer="Capa_1" /><g
     id="g3549"><path
       d="M 208.087,0 28.153,0 C 12.63,0 0,12.629 0,28.153 l 0,102.5 c 0,15.523 12.629,28.153 28.153,28.153 l 12.28,0 0,25.107 c 0,2.738 1.492,5.258 3.893,6.576 1.126,0.618 2.368,0.924 3.607,0.924 1.403,0 2.804,-0.394 4.03,-1.174 l 49.341,-31.433 106.782,0 c 15.523,0 28.153,-12.629 28.153,-28.153 l 0,-102.5 C 236.239,12.629 223.61,0 208.087,0 Z m 13.152,130.652 c 0,7.252 -5.9,13.153 -13.153,13.153 l -108.968,0 c -1.428,0 -2.826,0.407 -4.03,1.174 l -39.655,25.263 0,-18.937 c 0,-4.142 -3.358,-7.5 -7.5,-7.5 l -19.78,0 C 20.901,143.805 15,137.905 15,130.652 l 0,-102.5 C 15,20.9 20.9,14.999 28.153,14.999 l 179.933,0 c 7.253,10e-4 13.153,5.901 13.153,13.154 l 0,102.499 z"
       id="path3432"
       inkscape:connector-curvature="0" /><path
       style="fill:#0000ff"
       d="m 179.617,54.918 -122.994,0 c -4.142,0 -7.5,3.358 -7.5,7.5 0,4.142 3.358,7.5 7.5,7.5 l 122.994,0 c 4.142,0 7.5,-3.358 7.5,-7.5 0,-4.142 -3.358,-7.5 -7.5,-7.5 z"
       id="path3444"
       inkscape:connector-curvature="0" /><path
       style="fill:#ff0000"
       d="m 179.617,90.917 -122.994,0 c -4.142,0 -7.5,3.358 -7.5,7.5 0,4.142 3.358,7.5 7.5,7.5 l 122.994,0 c 4.142,0 7.5,-3.358 7.5,-7.5 0,-4.142 -3.358,-7.5 -7.5,-7.5 z"
       id="path3446"
       inkscape:connector-curvature="0" /><g
       transform="translate(-185.661,0)"
       id="g3448" /><g
       transform="translate(-185.661,0)"
       id="g3450" /><g
       transform="translate(-185.661,0)"
       id="g3452" /><g
       transform="translate(-185.661,0)"
       id="g3454" /><g
       transform="translate(-185.661,0)"
       id="g3456" /><g
       transform="translate(-185.661,0)"
       id="g3458" /><g
       transform="translate(-185.661,0)"
       id="g3460" /><g
       transform="translate(-185.661,0)"
       id="g3462" /><g
       transform="translate(-185.661,0)"
       id="g3464" /><g
       transform="translate(-185.661,0)"
       id="g3466" /><g
       transform="translate(-185.661,0)"
       id="g3468" /><g
       transform="translate(-185.661,0)"
       id="g3470" /><g
       transform="translate(-185.661,0)"
       id="g3472" /><g
       transform="translate(-185.661,0)"
       id="g3474" /><g
       transform="translate(-185.661,0)"
       id="g3476" /></g></svg>