<svg version="1" xmlns="http://www.w3.org/2000/svg" width="1258.667" height="1258.667" viewBox="0 0 944.000000 944.000000"><path d="M99.9 90.5c-.3.2-2.5.7-4.9 1-8.1 1-22.7 5.4-28.8 8.7-1.8 1-3.9 1.8-4.7 1.8-.8 0-1.5.4-1.5 1 0 .5-.5 1-1.1 1-.5 0-4.7 2.5-9.2 5.5-15.5 10.3-29.3 26.1-38.1 43.5-2.5 4.9-4.3 9-4 9 .2 0 0 .9-.6 1.9-.5 1.1-1.7 4.6-2.6 7.8-2.1 8-2.4 9.2-3.2 14.3-.9 5.9-.9 437.1 0 443C5 652.7 16 674.2 33.3 691.4c8.8 8.7 17.4 15.6 19.5 15.6.6 0 1.2.4 1.4.8.6 1.5 14.1 8 22.2 10.7 15.2 5.1 21 5.7 52.6 6.1 16.2.1 30.2.3 31 .3 1.3.1 1.5 6.5 1.7 52.3 0 31.9.5 53.8 1.1 56.2 2.3 8.6 10.6 17 19.9 20.2 4.5 1.6 15.9 1.2 19.8-.6 2.8-1.3 13.9-8.2 33-20.5 4.4-2.8 13.2-8.4 19.5-12.4 6.3-4 17.4-11 24.5-15.7 7.2-4.6 14.6-9.3 16.5-10.4 5-2.9 7.4-4.4 8-5 .3-.3 4.8-3.2 10-6.5 5.2-3.2 13.4-8.5 18.2-11.7 4.9-3.1 8.8-5.4 8.8-5 0 .4.4.2.8-.3.4-.6 3-2.5 5.7-4.3 2.8-1.7 5.5-3.5 6-4 .6-.4 3.5-2.2 6.5-4 7.9-4.7 9.4-5.6 10-6.2.3-.3 6.1-4.1 13-8.5 6.9-4.3 14.5-9.1 16.9-10.7 2.5-1.5 4.7-2.8 5-2.9.3 0 98.9-.2 219.1-.4 120.2-.1 220.5-.6 223-.9 7.7-1.2 10.8-1.9 20-4.9 7.2-2.2 17.1-6.7 19.6-8.8.9-.7 2.3-1.4 3.2-1.5.8-.2 1.8-.6 2.1-1.1.3-.4 2.9-2.4 5.6-4.3 2.8-1.9 6-4.4 7.1-5.5 1.2-1.1 3-2.7 4-3.6 2.6-2.1 9.2-9.6 12.9-14.4 10.4-13.5 18.8-33.5 21.3-50.8.4-2.9.7-103.3.7-223.2 0-206.8-.1-218.4-1.8-225.8-4.3-18.5-11.9-34.3-23.4-48.4-5.7-7-15.2-16.1-17.5-16.9-1-.3-1.8-.9-1.8-1.4 0-.8-10.8-7.6-18.5-11.7-4.4-2.3-20.3-7.8-25-8.6-1.7-.3-5.2-1-8-1.6-4.9-1-746.6-1.6-747.6-.6zm67.3 59.9c.4-.4 23.5-.5 46.8-.3 1.8.1 173.9.1 176 0h240c3.9.1 174.7 0 176.5 0 21-.5 35 .4 40.7 2.5 2.4.8 5.3 1.8 6.6 2.1 1.2.3 2.2.8 2.2 1.2 0 .3 1.3 1.2 3 1.9 3.8 1.7 12.7 10.5 16.8 16.7 4.5 6.8 9 22.1 8.3 28.2 0 .7-.1 2.1-.1 3 0 4.2-.1 12.7-.2 13.2 0 .3 0 .8.1 1.1.6 1.7.5 31-.1 31-.3 0-.3 1.2.1 2.6.3 1.4.4 5.3.1 8.5-.3 3.3-.4 6.2-.2 6.4.7.6.7 30.5 0 30.5-.3 0-.3 1.2.1 2.6.3 1.4.4 5.3.1 8.5-.3 3.3-.4 6.2-.2 6.4.7.6.7 30.5 0 30.5-.3 0-.3 1.2.1 2.6.3 1.4.4 5.3.1 8.5-.3 3.3-.4 6.2-.1 6.4.5.6.2 22.7-.4 23.3-.2.3 0 1.2.4 2.1.5.9.5 3.7.1 6.3-.4 2.7-.4 5-.1 5.3.6.6.2 17.7-.4 18.3-.2.3 0 1.2.4 2.1.5.9.5 3.7.1 6.3-.4 2.7-.4 5-.1 5.3.6.6.2 17.7-.4 18.3-.2.3 0 1.2.4 2.1.5.9.5 3.7.1 6.3-.4 2.7-.4 5-.1 5.3.6.6.2 17.7-.4 18.3-.2.3 0 1.2.4 2.1.5.9.5 3.7.1 6.3-.4 2.7-.5 5-.2 5.2.7.8.8 25.6 0 25.6-.3 0-.3 1.2.1 2.6.3 1.4.4 5.3.1 8.5-.3 3.3-.4 6.2-.2 6.4.7.6.7 30.5 0 30.5-.3 0-.3 1.2.1 2.6.3 1.4.4 5.3.1 8.5-.3 3.3-.4 6.2-.2 6.4.6.6.8 27.5.2 27.5-.3 0-.6 1.8-.7 3.9-.5 7.9-5.6 18.9-12.7 27.1-6 7.1-19.4 15.1-27.2 16.4-1.6.2-2.9.5-2.9.7 0 .1-100.8.3-224 .4-174.4.2-225 .5-228.5 1.5-2.5.6-10.6 5.1-18 9.8-7.4 4.7-16.2 10.2-19.5 12.3-3.3 2.1-6.5 4.2-7.1 4.7-.6.6-2.6 1.8-4.5 2.7-1.9 1-3.6 2.1-3.9 2.5-.3.4-2.7 2-5.3 3.6-6.4 3.8-4.9 2.9-40.1 25.4-49.3 31.5-54.1 34.5-58.9 37.4-1.8 1-3.4 2.1-3.7 2.5-.6.9-3.8 2.1-4.7 1.8-.4-.1-.8-18.2-.8-40.2 0-22-.4-40.6-.8-41.2-.5-.7-1-2.3-1.2-3.5-.3-1.3-.9-2.4-1.5-2.6-.5-.2-1-1-1-1.7 0-1.6-8.9-10.5-10.5-10.5-.6 0-1.7-.6-2.3-1.2-.7-.7-1.6-1.3-2-1.4-.4 0-2.5-.4-4.6-.9-2.2-.4-23.8-.9-48-1-24.3-.1-45.9-.5-48.1-.9-4.9-.8-15.2-5.5-20.2-9.3C76.8 651 69 642.9 69 641.6c0-.5-.6-1.7-1.4-2.5-3.1-3.4-7.9-19.3-7.7-25.1.1-3.7 0-10.8-.2-13.8-.2-1.7 0-3.2.4-3.2s.4-1.2 0-2.6c-.3-1.4-.4-5.3-.1-8.5.3-3.3.4-6.1.2-6.3-.6-.7-.7-78.6 0-78.6.3 0 .3-1.2-.1-2.6-.3-1.4-.4-5.3-.1-8.6.3-3.2.3-6.1 0-6.3-.7-.4-.3-8.2.4-10.2.3-.7.2-1.3-.2-1.3s-.5-2.7-.2-6.1c.3-3.3.3-6.2 0-6.4-.7-.4-.3-8.2.4-10.2.3-.7.2-1.3-.2-1.3s-.5-2.7-.2-6.1c.3-3.3.3-6.2 0-6.4-.7-.4-.3-8.2.4-10.2.3-.7.2-1.3-.2-1.3s-.5-2.7-.2-6.1c.3-3.3.3-6.2 0-6.4-.7-.4-.3-8.2.4-10.2.3-.7.2-1.3-.2-1.3s-.5-2.7-.2-6c.3-3.4.4-6.2.2-6.4-.6-.7-.7-78.6 0-78.6.3 0 .3-1.2-.1-2.6-.3-1.4-.4-5.3-.1-8.6.3-3.2.3-6.1 0-6.3-.7-.4-.3-8.2.4-10.2.3-.7.2-1.3-.2-1.3s-.5-2.7-.2-6.1c.3-3.3.3-6.2 0-6.4-.7-.4-.3-8.2.4-10.2.3-.7.2-1.3-.2-1.3s-.5-2.7-.2-6.1c.3-3.3.3-6.2 0-6.4-.7-.4-.3-8.2.4-10.2.3-.7.2-1.3-.2-1.3s-.5-2.7-.2-6.1c.3-3.3.3-6.2 0-6.4-.7-.4-.3-8.2.4-10.2.3-.7.1-1.3-.4-1.3s-.7-.6-.5-1.3c.3-.6.7-4.1.9-7.7.4-6.9 3.1-17.6 4.7-18.5.5-.4.9-1.5.9-2.6 0-1 .4-1.9.9-1.9s1.2-.8 1.5-1.8c.8-2.3 8.2-10.2 13.1-13.8 12.1-9.1 17.9-10.3 52.8-10.4 15.5 0 28.3-.3 28.5-.5.3-.2 1.2 0 2.2.5 1 .5 2 .7 2.2.4z"/><path d="M218.9 310.5c-5.6 1.8-9.2 3.8-13.2 7.4-9.1 8.4-11.8 23.4-6.2 34.6 4.5 8.8 12.2 14.7 21.5 16.3 4.9.8 500.2.8 503.6-.1 7.9-2 17-9.5 20.1-16.7 2.6-6.2 3-7.9 2.7-13.6-.4-7.2-2.9-13.4-7.7-18.9-3.4-3.9-10.2-8.2-14.3-9-1-.2-1.9-.4-1.9-.5 0-.2-112.8-.3-250.6-.4-172.4-.1-251.7.2-254 .9zM220.5 454c-5.7 1.3-12 4.8-15.8 8.9-12.9 13.9-10.1 35.4 5.8 45.7 7.7 5-6.2 4.7 257.5 4.8 135.6.1 249.3-.2 252.8-.6 7.8-.9 12.1-2.9 17.6-8.3 9-8.7 11.6-22.3 6.5-33.5-3.6-7.7-11.9-14.8-19.4-16.6-3.8-.9-500.9-1.2-505-.4z"/></svg>